<svg width="24" height="24" viewBox="0 0 24 24" fill="none" xmlns="http://www.w3.org/2000/svg">
<path fill-rule="evenodd" clip-rule="evenodd" d="M17.204 10.7962L19 9.00019C19.5453 8.45494 19.8179 8.18231 19.9636 7.88822C20.2409 7.32866 20.2409 6.67171 19.9636 6.11215C19.8179 5.81806 19.5453 5.54544 19 5.00019C18.4548 4.45494 18.1821 4.18231 17.888 4.03658C17.3285 3.75929 16.6715 3.75929 16.112 4.03658C15.8179 4.18231 15.5452 4.45494 15 5.00019L13.1813 6.81884C14.1452 8.46944 15.5314 9.845 17.204 10.7962ZM11.7269 8.2733L4.85638 15.1438C4.43132 15.5689 4.21879 15.7814 4.07906 16.0425C3.93932 16.3036 3.88038 16.5983 3.76248 17.1878L3.14709 20.2648C3.08057 20.5974 3.04731 20.7637 3.14191 20.8583C3.23652 20.9529 3.40283 20.9196 3.73544 20.8531L6.81242 20.2377C7.40187 20.1198 7.6966 20.0609 7.95769 19.9211C8.21879 19.7814 8.43132 19.5689 8.85638 19.1438L15.7458 12.2544C14.1241 11.2388 12.7524 9.87646 11.7269 8.2733Z" fill="#9FA2B4"/>
</svg>
