<svg width="173" height="50" viewBox="0 0 173 50" fill="none" xmlns="http://www.w3.org/2000/svg">
<path fill-rule="evenodd" clip-rule="evenodd" d="M168.267 17.9399V19.0696C166.114 17.441 163.231 17.2431 160.954 18.7411C159.913 19.4256 159.091 20.3296 158.489 21.4251C157.941 22.4111 157.667 23.671 157.667 24.8213C157.667 26.6561 158.27 28.4913 159.557 29.8608C160.735 31.1753 162.624 31.8874 164.46 31.8874C165.829 31.8874 167.226 31.4766 168.267 30.6549V32.4742C168.267 35.6266 162.447 36.0905 160.362 32.6905L157.989 35.1952C159.952 38.4668 164.846 39.3377 168.267 38.0485C171.268 36.9185 172.046 34.9692 172.046 32.0358V17.9399H168.267ZM52.7297 12.7573V32.9971H56.7014V26.4788H61.275C70.3792 26.4788 70.3639 12.7573 61.275 12.7573H52.7297ZM102.391 17.9368V19.0664C100.239 17.4375 97.3556 17.2397 95.0785 18.7376C94.0378 19.4225 93.2162 20.3262 92.6135 21.4219C92.0656 22.4076 91.7918 23.6676 91.7918 24.8178C91.7918 26.6529 92.3944 28.4878 93.6818 29.8573C94.8592 31.1721 96.7491 31.8839 98.5842 31.8839C99.9535 31.8839 101.35 31.4732 102.391 30.6514V32.471C102.391 35.6232 96.5712 36.0871 94.4864 32.687L92.1135 35.1918C94.0767 38.4637 98.9703 39.3342 102.391 38.0453C105.392 36.9151 106.171 34.9661 106.171 32.0327V17.9368H102.391ZM95.2695 24.8453C95.2695 19.7247 102.5 20.0129 102.5 24.7084C102.5 29.8257 95.2695 29.6069 95.2695 24.8453ZM71.4914 11.6735C72.8101 11.6735 73.8791 12.7426 73.8791 14.0613C73.8791 15.3799 72.8101 16.4486 71.4914 16.4486C70.1727 16.4486 69.1036 15.3799 69.1036 14.0613C69.1036 12.7426 70.1727 11.6735 71.4914 11.6735ZM69.5735 32.9969H73.4077V17.961V17.9334H69.5735V17.961V32.9969ZM88.5536 19.2208C86.347 17.3154 81.8985 17.0541 79.8988 19.4674V17.9336H76.0645V32.997H79.8713V24.3971C79.8713 22.2884 81.5422 20.9189 83.2403 20.9189C84.0344 20.9189 84.856 21.2202 85.5134 21.9324C86.1433 22.5897 86.4994 23.4935 86.4994 24.6712V32.997H90.3064V23.5757C90.3064 21.9324 89.7861 20.2342 88.5536 19.2208ZM56.7024 23.0002V16.2353H61.1118C62.9466 16.2353 64.3434 17.6597 64.3434 19.6315C64.3434 21.6037 62.9466 23.0002 61.1118 23.0002H56.7024ZM108.827 12.7573V32.9971H112.798V26.4788H117.372C126.476 26.4788 126.461 12.7573 117.372 12.7573H108.827ZM112.798 23.0002V16.2353H117.208C119.043 16.2353 120.44 17.6597 120.44 19.6315C120.44 21.6037 119.043 23.0002 117.208 23.0002H112.798ZM132.547 17.4515C134.73 17.4515 136.708 18.3368 138.139 19.7684C139.57 21.1996 140.456 23.1768 140.456 25.3608C140.456 27.5445 139.57 29.5218 138.139 30.9534C136.708 32.3846 134.73 33.2703 132.547 33.2703C130.363 33.2703 128.385 32.3846 126.954 30.9534C125.522 29.5218 124.637 27.5445 124.637 25.3608C124.637 23.1768 125.522 21.1996 126.954 19.7684C128.385 18.3368 130.363 17.4515 132.547 17.4515ZM132.546 21.1808C134.855 21.1808 136.726 23.0521 136.726 25.3606C136.726 27.6691 134.855 29.5403 132.546 29.5403C130.238 29.5403 128.366 27.6691 128.366 25.3606C128.366 23.0521 130.238 21.1808 132.546 21.1808ZM154.429 19.2208C152.223 17.3154 147.774 17.0541 145.774 19.4674V17.9336H141.94V32.997H145.747V24.3971C145.747 22.2884 147.418 20.9189 149.116 20.9189C149.91 20.9189 150.732 21.2202 151.389 21.9324C152.019 22.5897 152.375 23.4935 152.375 24.6712V32.997H156.182V23.5757C156.182 21.9324 155.662 20.2342 154.429 19.2208ZM161.145 24.8485C161.145 19.7276 168.376 20.0158 168.376 24.7112C168.376 29.8289 161.145 29.6101 161.145 24.8485Z" fill="white"/>
<path fill-rule="evenodd" clip-rule="evenodd" d="M29.367 4.37772C27.6096 2.61484 25.4078 1.36051 22.9951 0.747771C21.6359 0.49032 20.2568 0.351462 18.8735 0.332764L12.332 0.332764C9.15997 0.340426 6.11227 1.56705 3.81935 3.75888C1.52643 5.95071 0.163724 8.94004 0.0131401 12.1085H0V22.1946L0.00657004 26.2768C0.115149 29.4759 1.46033 32.5082 3.75911 34.7357C6.05788 36.9632 9.13102 38.2122 12.332 38.22H14.3314V27.8831H19.6378C22.3625 27.8862 25.0267 27.0802 27.2929 25.5675C29.559 24.0547 31.325 21.9032 32.367 19.3857C33.409 16.8681 33.6802 14.0979 33.1461 11.4261C32.612 8.7543 31.2968 6.3012 29.367 4.37772ZM4.01867 12.1085C4.16761 10.0027 5.10724 8.03112 6.64909 6.5892C8.19093 5.14727 10.221 4.34165 12.332 4.33392H18.8735C20.2143 4.35489 21.5476 4.53874 22.844 4.88142C25.0226 5.64283 26.8616 7.15029 28.0356 9.13708C29.2097 11.1239 29.6432 13.4619 29.2593 15.7375C28.8754 18.0132 27.699 20.0797 25.9382 21.5714C24.1773 23.0631 21.9456 23.8839 19.6378 23.8885H10.3303V33.9747C8.52693 33.521 6.92587 32.48 5.77951 31.0158C4.63315 29.5516 4.00672 27.7476 3.99896 25.888V16.1074L4.01867 12.1085Z" fill="url(#paint0_linear_143_396)"/>
<path fill-rule="evenodd" clip-rule="evenodd" d="M39.6996 16.1622C37.94 14.3992 35.7365 13.145 33.3222 12.5322C31.9646 12.2762 30.5875 12.1373 29.2061 12.1172H22.6667C19.4945 12.1251 16.4466 13.3517 14.1532 15.5434C11.8598 17.7351 10.4963 20.7243 10.3446 23.8929H10.3326V33.9801L10.3392 38.0623C10.4497 41.2606 11.7959 44.2916 14.0949 46.5178C16.3939 48.7441 19.4665 49.9923 22.6667 50.0001H24.6673V39.6687H29.9726C32.6974 39.6716 35.3617 38.8656 37.6278 37.3528C39.894 35.8399 41.6601 33.6884 42.7022 31.1708C43.7443 28.6532 44.0156 25.8829 43.4817 23.211C42.9477 20.5391 41.6325 18.0859 39.7028 16.1622H39.6996ZM14.3513 23.8929C14.5002 21.7873 15.4397 19.8159 16.9813 18.374C18.5229 16.9321 20.5526 16.1264 22.6635 16.1184H29.2061C30.5469 16.1393 31.8802 16.3232 33.1766 16.6659C35.3521 17.4295 37.1878 18.9374 38.3594 20.9232C39.5309 22.9091 39.963 25.245 39.5793 27.5185C39.1956 29.792 38.0207 31.8568 36.2623 33.3481C34.5039 34.8394 32.275 35.6613 29.9693 35.6686H20.6618V45.7558C18.8594 45.3018 17.2592 44.2612 16.1133 42.7977C14.9675 41.3342 14.341 39.5312 14.3326 37.6725V27.893L14.3513 23.8929Z" fill="url(#paint1_linear_143_396)"/>
<defs>
<linearGradient id="paint0_linear_143_396" x1="-2.35922" y1="7.51475" x2="29.4179" y2="36.8337" gradientUnits="userSpaceOnUse">
<stop stop-color="#FF1E6F"/>
<stop offset="1" stop-color="#DD1699"/>
</linearGradient>
<linearGradient id="paint1_linear_143_396" x1="51.6994" y1="35.824" x2="22.143" y2="-3.10595" gradientUnits="userSpaceOnUse">
<stop stop-color="#20F3A7"/>
<stop offset="1" stop-color="#38F28D"/>
</linearGradient>
</defs>
</svg>
