<svg width="24" height="24" viewBox="0 0 24 24" fill="none" xmlns="http://www.w3.org/2000/svg">
<path d="M14.7159 3.99118L14.7159 3.99118C14.6235 3.64609 14.3539 3.37654 14.0088 3.28407C13.8711 3.24717 13.7247 3.24922 13.6775 3.24988C13.6729 3.24995 13.6693 3.25 13.6667 3.25H10.3333C10.3307 3.25 10.3271 3.24995 10.3225 3.24988C10.2753 3.24922 10.1289 3.24717 9.99118 3.28407C9.64609 3.37654 9.37654 3.64609 9.28407 3.99118C9.24717 4.1289 9.24922 4.27534 9.24988 4.32245C9.24995 4.32707 9.25 4.33073 9.25 4.33333C9.25 4.34366 9.24994 4.35488 9.24988 4.36686C9.24927 4.4787 9.24831 4.65824 9.29259 4.82352C9.40818 5.25489 9.74511 5.59182 10.1765 5.70741C10.3418 5.75169 10.5213 5.75073 10.6331 5.75013C10.6451 5.75006 10.6563 5.75 10.6667 5.75H13.3333C13.3437 5.75 13.3549 5.75006 13.3669 5.75013C13.4787 5.75073 13.6582 5.75169 13.8235 5.70741C14.2549 5.59182 14.5918 5.25489 14.7074 4.82352C14.7517 4.65824 14.7507 4.4787 14.7501 4.36686C14.7501 4.35488 14.75 4.34366 14.75 4.33333C14.75 4.33073 14.7501 4.32707 14.7501 4.32245C14.7508 4.27534 14.7528 4.1289 14.7159 3.99118Z" stroke="#CBCBCD" stroke-width="1.5"/>
<rect x="6" y="3" width="12" height="18" rx="2" stroke="#CBCBCD" stroke-width="1.5"/>
<circle cx="12" cy="18" r="1" fill="#CBCBCD"/>
</svg>
